<svg width="367" height="336" xmlns="http://www.w3.org/2000/svg" xmlns:xlink="http://www.w3.org/1999/xlink"><defs><path d="M105 130.05c0 .75-.26 1.38-.76 1.88s-1.14.76-1.88.76c-1.05 0-1.9-.49-2.54-1.47L95 124.24H72.16l-4.81 6.98c-.53.77-1.09 1.15-1.69 1.15-.6 0-1.18-.2-1.73-.58-.62-.43-.93-.92-.93-1.5 0-.17.05-.34.15-.48l17.14-26.2c.7-1.07 1.9-1.61 3.6-1.61 1.28 0 2.12.36 2.55 1.07a2.96 2.96 0 0 0 .3.54l18.15 25.7c.07.12.1.37.1.74zm-13.17-10.3l-8.22-12.13-8.28 12.13h16.5zm52.08-6.3c0 2.69-1.42 4.65-4.25 5.88a20.53 20.53 0 0 1-7.76 1.37h-8.94l18.12 7.7c.96.41 1.44 1.04 1.44 1.87 0 1.22-1.07 1.83-3.2 1.83a8.1 8.1 0 0 1-2-.2l-24.74-10.56v8.8c0 1.3-.63 1.94-1.9 1.94a8.2 8.2 0 0 1-2.34-.17c-.78-.25-1.17-.83-1.17-1.76v-25.9c0-1.27.63-1.9 1.9-1.9h21.83c3.38 0 6.16.43 8.35 1.31 3.1 1.25 4.66 3.32 4.66 6.2v3.59zm-5.42.05v-3.76c0-1.99-2.54-2.98-7.62-2.98h-18.29v9.52h19.27c4.42 0 6.64-.93 6.64-2.78zm58.9 16.65c0 .94-.38 1.54-1.16 1.78-.33.1-1.1.15-2.35.15-1.27 0-1.9-.64-1.9-1.93V110.9l-16 19.73a4.2 4.2 0 0 1-3.43 1.56 4.23 4.23 0 0 1-3.47-1.56l-16.29-19.83v19.34c0 1.29-.63 1.93-1.9 1.93-1.25 0-2.03-.05-2.34-.15-.78-.24-1.18-.84-1.18-1.78V105.2c0-1.84 1.01-2.76 3.03-2.76 1.32 0 2.38.47 3.18 1.42l19.04 22.53 18.6-22.56a3.8 3.8 0 0 1 3.08-1.41c2.07 0 3.1 1 3.1 3v24.73zm36.65-5.44c0 1.59-.25 2.84-.75 3.73-1.35 2.43-5.44 3.64-12.26 3.64h-18.77c-1.26 0-1.88-.64-1.88-1.93 0-.88.1-1.49.3-1.83.27-.47.8-.71 1.58-.71h18.77c5.06 0 7.6-.94 7.6-2.8v-2.57c0-1.82-2.45-2.82-7.35-2.98l-9.01-.3a135.96 135.96 0 0 1-4.64-.26 10.11 10.11 0 0 1-5.03-1.93 5.54 5.54 0 0 1-2.3-4.61v-2.25c0-3.47 1.93-5.75 5.77-6.86 1.84-.47 5.2-.7 10.1-.7 1.27 0 1.9.82 1.9 2.48 0 .96-.37 1.56-1.14 1.8-.11.07-.89.1-2.32.1-5.92 0-8.89 1.05-8.89 3.13v2.08c0 1.28 1.11 2.12 3.32 2.51.43.08 1.04.14 1.85.18.8.04 1.8.07 2.96.07h7.26c3.46 0 6.2.44 8.2 1.34 3.16 1.3 4.73 3.3 4.73 6v2.67zm34.38-3.94c0 1.42-.48 2.13-1.44 2.13h-25.61v.17c0 2.21 1.3 3.64 3.9 4.27.58.13 1.4.23 2.48.3 1.09.08 2.47.12 4.14.12 1.27 0 1.9.8 1.9 2.39 0 1.29-.63 1.93-1.9 1.93-1.72 0-3.14-.01-4.23-.04-1.1-.02-1.94-.07-2.5-.13-2.84-.3-4.92-.96-6.26-2-1.9-1.49-2.85-3.23-2.85-5.23v-8.62c0-2.7 1.46-4.7 4.4-6 2-.95 4.65-1.42 7.95-1.42h9.62c2.7 0 4.94.45 6.71 1.34 2.46 1.14 3.69 2.86 3.69 5.15v5.64zm-5.03-2.34v-2.88c0-1.76-3.5-2.64-10.47-2.64-4.12 0-6.94.15-8.47.44-2.17.4-3.25 1.2-3.25 2.4v2.68h22.2zm40.53 11.72c0 1.29-.8 1.93-2.4 1.93h-19.06c-3.66 0-6.3-.35-7.91-1.05-2.77-1.1-4.15-3.12-4.15-6.03v-9.23c0-4.74 3.66-7.1 10.98-7.1h20.41c1.34 0 2 .72 2 2.17s-.66 2.17-2 2.17h-20.04c-4.13 0-6.2.87-6.2 2.61v9.16c0 1.98 2.35 2.98 7.05 2.98H302c1.29 0 1.93.8 1.93 2.39z" id="a"/><linearGradient x1="88.87%" y1="4.56%" x2="34.94%" y2="63.18%" id="b"><stop stop-color="#FFF" stop-opacity=".47" offset="0%"/><stop stop-color="#FFF" stop-opacity=".04" offset="100%"/></linearGradient></defs><g fill="none" fill-rule="evenodd"><path d="M67.84 16.5C-41.3 172.22 86.4 294.88 185.3 327.7c98.76-29.82 222.62-142 118.92-307.5C267.12 32.93 226.08 32.1 187 10c-34.83 32.02-119.16 6.5-119.16 6.5z" stroke="#F7FCFF" stroke-width="15.82"/><path d="M47.42 312.33c95.94-12.43 183.91-8.04 270.97-.42l-.42-49.7c-88.69-8.8-177.85-16.05-270.97 1.7l.42 48.42z" fill="#0063AE"/><path d="M89.78 242.02c56.51-2.98 120.93-4.41 193.4.6 31.31-42.92 62.33-96.53 13.22-196.4-37.69 7.62-77.42 4.1-108.11-10.22-28.96 10.08-64.05 18.96-110.52 8.4C23.22 144.5 57.2 201.3 89.78 242.03z" fill="#0063AE" fill-rule="nonzero"/><g transform="translate(0 10)"><use fill="#000" xlink:href="#a"/><use fill="#FFF" xlink:href="#a"/></g><path d="M185.67 149.21c0 .6-.24.9-.73.9h-2.98v6.47c0 .48-.24.73-.73.73-.48 0-.76-.02-.84-.07-.26-.09-.39-.31-.39-.66v-7.95c0-1.75 1.46-2.63 4.39-2.63.5 0 .81.03.94.08.22.11.34.39.34.83 0 .48-.24.72-.73.72-.87 0-1.45.02-1.71.06-.83.12-1.24.39-1.24.8h2.95c.49 0 .73.24.73.72zm12.49 5.33c0 1.02-.5 1.76-1.5 2.23-.72.36-1.66.54-2.85.54h-3.25a7.5 7.5 0 0 1-2.92-.55c-1.08-.48-1.62-1.22-1.62-2.22v-3.27c0-1 .54-1.75 1.6-2.26.8-.4 1.77-.6 2.93-.6h3.26c2.9 0 4.35.95 4.35 2.84v3.3zm-1.99 0v-3.42c0-.7-.8-1.06-2.41-1.06h-3.18c-.6 0-1.13.08-1.6.23-.67.21-1 .54-1 .98v3.27c0 .43.34.73 1.02.93.45.13.98.2 1.59.2h3.18c.51 0 1-.08 1.45-.23.63-.2.95-.5.95-.9zm15.77.12c0 1.78-1.9 2.68-5.68 2.68a22.94 22.94 0 0 1-1.06-.03h-.92c-3.18 0-4.77-.89-4.77-2.65v-5.51c0-.5.24-.74.72-.74.49 0 .77.02.85.07.26.09.39.31.39.67v5.5c0 .68.93 1.02 2.8 1.02h2.93c1.84 0 2.76-.33 2.76-.99v-5.53c0-.36.13-.58.4-.67.08-.05.36-.07.85-.07s.73.25.73.74v5.5zm13.53 1.92c0 .48-.25.73-.73.73-.49 0-.77-.02-.85-.07-.26-.09-.4-.31-.4-.66v-5.66c0-.4-.33-.67-1-.8a25.13 25.13 0 0 0-1.47-.06h-3.37a16.55 16.55 0 0 0-1.41.08c-.63.12-.95.38-.95.79v5.65c0 .48-.24.73-.72.73-.49 0-.77-.02-.85-.07-.26-.09-.39-.31-.39-.66v-5.64c0-1.68 1.5-2.53 4.5-2.53h3.2c2.96 0 4.44.84 4.44 2.52v5.65zm13.9-2c0 .94-.59 1.67-1.77 2.16-.83.38-1.84.57-3.01.57h-2.99c-3.02 0-4.59-.84-4.68-2.52a40.82 40.82 0 0 1 .03-3.54c.1-1.84 1.65-2.76 4.62-2.76h5.85v-1.74c0-.49.24-.73.72-.73.35 0 .63.02.84.07.26.1.4.32.4.66v7.82zm-1.95-.04v-4.41h-5.9c-1.74 0-2.62.38-2.62 1.16v3.15c0 .58.33.95 1 1.12.28.07.84.1 1.67.1h2.82c2.02 0 3.03-.37 3.03-1.12zm16.32.1c0 1.78-1.34 2.67-4.01 2.67h-4.79a5.85 5.85 0 0 1-2.66-.57c-1-.48-1.51-1.15-1.51-2.01v-1.13c0-.93.48-1.63 1.43-2.09a5.9 5.9 0 0 1 2.68-.54h6.92c-.1-.62-1-.93-2.66-.93a7.8 7.8 0 0 0-.66.02H248c-.48 0-.72-.3-.72-.91 0-.5.24-.74.72-.74 1.57 0 2.76.11 3.6.33 1.42.4 2.13 1.2 2.13 2.4v3.5zm-1.92-.47a14.07 14.07 0 0 0-.02-.78 38.85 38.85 0 0 1-.02-.78h-6.95c-.4 0-.83.08-1.26.23-.56.19-.85.44-.85.75v1.12c0 .33.3.58.88.75.37.14.8.2 1.29.2h4.86c.73 0 1.23-.06 1.5-.2.38-.2.57-.62.57-1.29zm10.02-4.77c0 .48-.25.72-.74.72H258v6.46c0 .48-.24.73-.72.73a2.8 2.8 0 0 1-.83-.07c-.27-.1-.4-.32-.4-.66v-6.46a11.7 11.7 0 0 1-.99-.05c-.3-.1-.46-.36-.46-.77 0-.4.15-.66.46-.77l.35-.03.64-.01v-1.76c0-.48.24-.72.72-.72s.75.02.83.06c.27.1.4.32.4.66v1.76h3.1c.5 0 .74.3.74.9zm3.32-2.2c0 .32-.14.57-.41.76a1.5 1.5 0 0 1-.86.24 1.5 1.5 0 0 1-.87-.24.87.87 0 0 1-.4-.76c0-.32.13-.58.4-.76.24-.16.53-.25.87-.25.34 0 .62.09.86.25.27.18.4.44.4.76zm-.27 9.38c0 .48-.25.73-.74.73a2.8 2.8 0 0 1-.83-.07c-.25-.09-.38-.31-.38-.66v-7.47c0-.48.24-.73.73-.73.47 0 .75.03.83.07.26.1.39.31.39.66v7.47zm13.62-2.04c0 1.02-.5 1.76-1.5 2.23-.72.36-1.66.54-2.84.54h-3.26a7.5 7.5 0 0 1-2.92-.55c-1.08-.48-1.62-1.22-1.62-2.22v-3.27c0-1 .54-1.75 1.6-2.26.8-.4 1.77-.6 2.93-.6h3.27c2.89 0 4.34.95 4.34 2.84v3.3zm-1.99 0v-3.42c0-.7-.8-1.06-2.41-1.06h-3.18c-.6 0-1.13.08-1.6.23-.67.21-1 .54-1 .98v3.27c0 .43.34.73 1.02.93.45.13.98.2 1.59.2h3.18c.51 0 1-.08 1.46-.23.63-.2.94-.5.94-.9zm15.44 2.04c0 .48-.25.73-.73.73-.49 0-.77-.02-.85-.07-.26-.09-.4-.31-.4-.66v-5.66c0-.4-.33-.67-1-.8a25.13 25.13 0 0 0-1.47-.06h-3.37a16.55 16.55 0 0 0-1.41.08c-.63.12-.95.38-.95.79v5.65c0 .48-.24.73-.72.73s-.77-.02-.85-.07c-.26-.09-.39-.31-.39-.66v-5.64c0-1.68 1.5-2.53 4.5-2.53h3.2c2.96 0 4.44.84 4.44 2.52v5.65z" fill="#FFF"/><path d="M283.19 232.62c31.3-42.92 62.32-96.53 13.21-196.4-37.69 7.62-77.42 4.1-108.11-10.22-28.96 10.08-64.05 18.96-110.52 8.4-11.3 22.9 49.31 93.34 110.48 143.75 19.36 15.96 38.78 29.9 56 39.7 15.23 8.68 28.74 14.1 38.94 14.77z" fill="url(#b)" fill-rule="nonzero" transform="translate(0 10)"/><g transform="translate(155 246)"><path fill="#F23131" d="M1 20.8h58.8L52.04 8.58 39.28 1H21.46L8.66 8.57z"/><path fill="#2F3EEB" d="M1 21v20.92h58.59V21z"/><path fill="#E6B327" d="M3 41l6.88 10.61 15.79 8.92 19.06-3.06 11.32-10.33 3.4-6.14z"/><ellipse stroke="#F7FCFF" stroke-width="4.3" fill-rule="nonzero" cx="30.56" cy="30.56" rx="30.56" ry="30.56"/></g><path fill="#0063AE" d="M292 316.5l30.58 2.55L323 277l43.32 4.67-22.5 18.7 20.8 29.72-72.62-5.52zM73.05 315.17l-30.79 2.76-.42-41.93L0 278.55l21.02 20.74-20.8 29.65 73.05-5.1z"/></g></svg>
