<svg id="Layer_1" xmlns="http://www.w3.org/2000/svg" viewBox="0 0 309.2 139.3"><style>.st0{fill:#a3238e}.st1{fill:#a7a9ac;stroke:#a7a9ac;stroke-width:.4333;stroke-miterlimit:2.6131}.st3{fill:#2abec5}.st5{fill:#fff}</style><path class="st0" d="M6.7 24.8c-6.2-3.3-8.3-10.4-5.4-17 .4-1 .9-1.8 1.5-2.5.6-.8 1.3-1.5 2-2.1 5.6-4.5 13-4.2 17.8.9 3.5 3.8 2.7 10.4 6.8 16.9C37 32.9 59 31.6 72.3 34.1c5.1 1 9.5 3.5 12.5 7.3 6.4 8.1 6.2 19.4-.1 27.1-5.9 8-16.7 11.2-26.2 7-4.5-2-8-5.5-10.2-10.2C42.5 53 38.1 31.4 24.7 27.1c-7.3-2.4-13.5.1-18-2.3z"/><path class="st1" d="M191.6 118h7.9v.9h-6.9v5.2h5.9v.9h-5.9v5.3h6.9v.9h-7.9V118zm12.1 1.7v11.4h-1V118h1l7.5 11.3V118h1v13.1h-1l-7.5-11.4zm16.1 11.4h-1v-12.2h-3.9v-.9h8.8v.9h-3.9v12.2zm6.6-13.1h7.9v.9h-6.9v5.2h5.9v.9h-5.9v5.3h6.9v.9h-7.9V118zm15.7 7h-3.6v6h-1v-13h5c.5 0 1 .1 1.5.2.5.2.9.4 1.2.7a3.34 3.34 0 0 1 1.1 2.6c0 1-.3 1.8-.8 2.4s-1.3 1-2.2 1.1l3.2 6h-1.2l-3.2-6zm3.2-3.5c0-.9-.3-1.6-.8-2s-1.2-.6-2.1-.6h-3.9v5.3h3.9c.8 0 1.5-.2 2.1-.6s.8-1.2.8-2.1zm13.1.3c0 .6-.1 1.1-.3 1.6-.2.5-.5.9-.8 1.2s-.8.6-1.2.7c-.5.2-1 .2-1.6.2h-3.8v5.5h-1v-13h4.8c.6 0 1.1.1 1.6.2.5.2.9.4 1.2.7s.6.7.8 1.2c.2.5.3 1.1.3 1.7zm-.9 0c0-1-.3-1.7-.9-2.2s-1.3-.7-2.2-.7h-3.7v5.8h3.7c.9 0 1.6-.2 2.2-.7.6-.5.9-1.3.9-2.2zm8.5 3.2h-3.6v6h-1v-13h5c.5 0 1 .1 1.5.2s.9.4 1.2.7.6.7.8 1.1c.2.4.3.9.3 1.5 0 1-.3 1.8-.8 2.4s-1.3 1-2.2 1.1l3.2 6h-1.2l-3.2-6zm3.2-3.5c0-.9-.3-1.6-.8-2s-1.2-.6-2.1-.6h-3.9v5.3h3.9c.8 0 1.5-.2 2.1-.6.5-.5.8-1.2.8-2.1zm4.4-3.5h1v13.1h-1V118zm12.8 9.6c0 1.1-.4 2-1.2 2.6-.8.6-1.9 1-3.2 1-1 0-1.8-.1-2.5-.4-.7-.3-1.3-.7-1.9-1.3l.7-.7c.3.3.6.5.9.7s.6.4.9.5l.9.3c.3 0 .7.1 1.1.1 1 0 1.9-.2 2.5-.7s.9-1.1.9-2c0-.8-.2-1.4-.7-1.8-.1-.1-.2-.2-.3-.2-.1-.1-.2-.1-.4-.2-.1-.1-.3-.1-.5-.1s-.4-.1-.7-.1l-1.5-.2c-1-.1-1.8-.5-2.3-1-.7-.6-1-1.4-1-2.4 0-1.1.4-2 1.1-2.6s1.7-1 3-1c.8 0 1.5.1 2.1.3.6.2 1.1.6 1.7 1.1l-.6.6c-.2-.2-.4-.3-.6-.5-.2-.1-.4-.3-.7-.4-.3-.1-.5-.2-.8-.2-.3-.1-.7-.1-1-.1-1 0-1.7.2-2.2.7s-.8 1.1-.8 2c0 .8.2 1.3.7 1.7.2.2.5.4.9.5l1.1.3 1.4.2c.6.1 1.1.2 1.4.3.3.1.6.3.9.5.4.3.6.7.8 1.1s-.1.8-.1 1.4zm3.3-9.6h7.9v.9h-6.9v5.2h5.9v.9h-5.9v5.3h6.9v.9h-7.9V118zm18.8 9.6c0 1.1-.4 2-1.2 2.6-.8.6-1.9 1-3.2 1-1 0-1.8-.1-2.5-.4-.7-.3-1.3-.7-1.9-1.3l.7-.7c.3.3.6.5.9.7s.6.4.9.5l.9.3c.3 0 .7.1 1.1.1 1 0 1.9-.2 2.5-.7s.9-1.1.9-2c0-.8-.2-1.4-.7-1.8-.1-.1-.2-.2-.3-.2s-.2-.1-.4-.2c-.1-.1-.3-.1-.5-.1s-.4-.1-.7-.1l-1.5-.2c-1-.1-1.8-.5-2.3-1-.7-.6-1-1.4-1-2.4 0-1.1.4-2 1.1-2.6s1.7-1 3-1c.8 0 1.5.1 2.1.3.6.2 1.1.6 1.7 1.1l-.6.6c-.2-.2-.4-.3-.6-.5-.2-.1-.4-.3-.7-.4-.3-.1-.5-.2-.8-.2-.3-.1-.7-.1-1-.1-1 0-1.7.2-2.2.7s-.8 1.1-.8 2c0 .8.2 1.3.7 1.7.2.2.5.4.9.5l1.1.3 1.4.2c.6.1 1.1.2 1.4.3.3.1.6.3.9.5.4.3.6.7.8 1.1-.2.4-.1.8-.1 1.4zM200.7 51.7c0 .6-.1 1.2-.3 1.8-.2.5-.5 1-.9 1.4s-.9.7-1.4.9-1.1.3-1.8.3-1.3-.1-1.8-.3-1-.5-1.4-.9-.7-.8-.9-1.4c-.2-.5-.3-1.1-.3-1.8v-8.8h1v8.7c0 .5.1 1 .2 1.5.2.4.4.8.7 1.1s.7.6 1.1.7c.4.2.9.3 1.4.3s1-.1 1.4-.3.8-.4 1.1-.7.5-.7.7-1.1.2-.9.2-1.5v-8.7h1v8.8zm5-7.1V56h-1V42.9h1l7.5 11.3V42.9h1V56h-1l-7.5-11.4zm12.7-1.7h1V56h-1V42.9zm13.6 6.5v1.9c0 .5-.1 1-.1 1.4-.1.4-.2.8-.4 1.1s-.4.6-.7.9c-.4.4-.9.8-1.5 1s-1.2.3-1.8.3-1.2-.1-1.8-.3-1.1-.6-1.5-1c-.3-.3-.5-.6-.7-.9-.2-.3-.3-.7-.4-1.1s-.1-.9-.1-1.4v-1.9-1.9c0-.5.1-1 .1-1.4s.2-.8.4-1.1.4-.6.7-.9c.4-.4.9-.8 1.5-1s1.2-.3 1.8-.3 1.2.1 1.8.3 1.1.6 1.5 1a3.58 3.58 0 0 1 1.1 2c.1.4.1.9.1 1.4v1.9zm-1 0v-1.8c0-.5-.1-.9-.1-1.3-.1-.4-.2-.7-.3-.9-.1-.3-.3-.5-.6-.7-.3-.3-.7-.6-1.1-.8-.4-.2-.9-.3-1.3-.3-.5 0-.9.1-1.3.3-.4.2-.8.4-1.1.8-.2.2-.4.5-.6.7l-.3.9c-.1.4-.1.8-.1 1.3v3.6c0 .5.1.9.1 1.3s.2.7.3.9.3.5.6.7c.3.3.7.6 1.1.8.4.2.9.3 1.3.3.5 0 .9-.1 1.3-.3s.8-.4 1.1-.8c.2-.2.4-.5.6-.7s.2-.6.3-.9c.1-.4.1-.8.1-1.3v-1.8zm5.7-4.8V56h-1V42.9h1l7.5 11.3V42.9h1V56h-1l-7.5-11.4zm25.8 4.8v1.9c0 .5-.1 1-.1 1.4s-.2.8-.4 1.1c-.2.3-.4.6-.7.9-.4.4-.9.8-1.5 1s-1.2.3-1.8.3-1.2-.1-1.8-.3c-.6-.2-1.1-.6-1.5-1-.3-.3-.5-.6-.7-.9-.2-.3-.3-.7-.4-1.1-.1-.4-.1-.9-.1-1.4v-1.9-1.9c0-.5.1-1 .1-1.4.1-.4.2-.8.4-1.1s.4-.6.7-.9c.4-.4.9-.8 1.5-1s1.2-.3 1.8-.3 1.2.1 1.8.3c.6.2 1.1.6 1.5 1 .3.3.5.6.7.9.2.3.3.7.4 1.1s.1.9.1 1.4v1.9zm-1 0v-1.8c0-.5-.1-.9-.1-1.3-.1-.4-.2-.7-.3-.9-.1-.3-.3-.5-.6-.7-.3-.3-.7-.6-1.1-.8s-.9-.3-1.3-.3-.9.1-1.3.3-.8.4-1.1.8c-.2.2-.4.5-.6.7l-.3.9c-.1.4-.1.8-.1 1.3v3.6c0 .5.1.9.1 1.3s.2.7.3.9c.1.3.3.5.6.7.3.3.7.6 1.1.8s.9.3 1.3.3.9-.1 1.3-.3.8-.4 1.1-.8c.2-.2.4-.5.6-.7s.2-.6.3-.9c.1-.4.1-.8.1-1.3v-1.8zm5.6-.2h5.9v.8h-5.9v6h-1V42.9h7.9v.9h-6.9v5.4zM196.4 106.4h-1V94.3h-3.9v-.9h8.8v.9h-3.9v12.1zm6.6-13h7.9v.9H204v5.2h5.9v.9H204v5.3h6.9v.9H203V93.4zm19.5 9.3c-.1.6-.3 1.1-.6 1.6s-.6.9-1 1.2c-.4.3-.8.6-1.3.8-.5.2-1 .3-1.6.3s-1.2-.1-1.8-.3-1.1-.6-1.5-1c-.3-.3-.5-.6-.7-.9s-.3-.7-.4-1.1c-.1-.4-.1-.9-.1-1.4V100v-1.9c0-.5.1-1 .1-1.4s.2-.8.4-1.1c.2-.3.4-.6.7-.9.4-.4.9-.8 1.5-1s1.2-.3 1.8-.3c1.2 0 2.2.3 2.9 1 .8.7 1.3 1.6 1.5 2.8h-1c-.2-.9-.6-1.6-1.2-2.2-.6-.5-1.4-.8-2.2-.8-.5 0-.9.1-1.3.3-.4.2-.8.4-1.1.8-.2.2-.4.5-.6.7l-.3.9c-.1.3-.1.8-.1 1.3v3.6c0 .5.1.9.1 1.3.1.4.2.7.3.9.1.3.3.5.6.7.3.3.7.6 1.1.8a3.3 3.3 0 0 0 3.5-.5c.6-.5 1-1.2 1.2-2.2l1.1-.1zm11.3-2.4H227v6.2h-1V93.4h1v6h6.8v-6h1v13.1h-1v-6.2zm6.2-5.2v11.4h-1V93.4h1l7.5 11.3V93.4h1v13.1h-1L240 95.1zm21.1 4.8v1.9c0 .5-.1 1-.1 1.4-.1.4-.2.8-.4 1.1s-.4.6-.7.9c-.4.4-.9.8-1.5 1a5.66 5.66 0 0 1-3.6 0c-.6-.2-1.1-.6-1.5-1-.3-.3-.5-.6-.7-.9s-.3-.7-.4-1.1c-.1-.4-.1-.9-.1-1.4v-1.9V98c0-.5.1-1 .1-1.4.1-.4.2-.8.4-1.1.2-.3.4-.6.7-.9.4-.4.9-.8 1.5-1s1.2-.3 1.8-.3 1.2.1 1.8.3c.6.2 1.1.6 1.5 1 .3.3.5.6.7.9s.3.7.4 1.1.1.9.1 1.4v1.9zm-1 0v-1.8c0-.5-.1-.9-.1-1.3-.1-.4-.2-.7-.3-.9-.1-.3-.3-.5-.6-.7-.3-.3-.7-.6-1.1-.8-.4-.2-.9-.3-1.3-.3s-.9.1-1.3.3c-.4.2-.8.4-1.1.8-.2.2-.4.5-.6.7l-.3.9c-.1.3-.1.8-.1 1.3v3.6c0 .5.1.9.1 1.3.1.4.2.7.3.9.1.3.3.5.6.7.3.3.7.6 1.1.8s.9.3 1.3.3.9-.1 1.3-.3.8-.4 1.1-.8c.2-.2.4-.5.6-.7l.3-.9c.1-.4.1-.8.1-1.3v-1.8zm4.7-6.5h1v12.2h6.9v.9h-7.9V93.4zm19.1 6.5v1.9c0 .5-.1 1-.1 1.4-.1.4-.2.8-.4 1.1s-.4.6-.7.9c-.4.4-.9.8-1.5 1s-1.2.3-1.8.3-1.2-.1-1.8-.3c-.6-.2-1.1-.6-1.5-1-.3-.3-.5-.6-.7-.9s-.3-.7-.4-1.1-.1-.9-.1-1.4v-1.9V98c0-.5.1-1 .1-1.4.1-.4.2-.8.4-1.1.2-.3.4-.6.7-.9.4-.4.9-.8 1.5-1s1.2-.3 1.8-.3 1.2.1 1.8.3c.6.2 1.1.6 1.5 1 .3.3.5.6.7.9s.3.7.4 1.1.1.9.1 1.4v1.9zm-1 0v-1.8c0-.5-.1-.9-.1-1.3s-.2-.7-.3-.9c-.1-.3-.3-.5-.6-.7-.3-.3-.7-.6-1.1-.8-.4-.2-.9-.3-1.3-.3-.5 0-.9.1-1.3.3-.4.2-.8.4-1.1.8-.2.2-.4.5-.6.7l-.3.9c-.1.4-.1.8-.1 1.3v3.6c0 .5.1.9.1 1.3.1.4.2.7.3.9.1.3.3.5.6.7.3.3.7.6 1.1.8.4.2.9.3 1.3.3.5 0 .9-.1 1.3-.3s.8-.4 1.1-.8c.2-.2.4-.5.6-.7l.3-.9c.1-.4.1-.8.1-1.3v-1.8zm13.1 2c0 .7-.1 1.3-.2 1.8s-.4 1-.8 1.4c-.4.5-.9.8-1.5 1.1-.6.3-1.2.4-1.9.4-.6 0-1.2-.1-1.8-.3-.6-.2-1.1-.6-1.5-1-.3-.3-.5-.6-.7-.9s-.3-.7-.4-1.1-.1-.9-.1-1.4V100v-1.9c0-.5.1-1 .1-1.4s.2-.8.4-1.1c.2-.3.4-.6.7-.9.4-.4.9-.8 1.5-1s1.2-.3 1.8-.3c.6 0 1.1.1 1.6.3.5.2.9.4 1.3.8a4.28 4.28 0 0 1 1.5 2.8h-1c-.2-.9-.6-1.6-1.2-2.2-.6-.5-1.4-.8-2.2-.8-.5 0-.9.1-1.3.3-.4.2-.8.4-1.1.8-.2.2-.4.5-.5.7l-.3.9c-.1.3-.1.8-.1 1.3v3.6c0 .5.1.9.1 1.3.1.4.2.7.3.9.1.3.3.5.5.7.3.3.7.6 1.1.8.4.2.9.3 1.3.3.5 0 1-.1 1.5-.3.5-.2.9-.5 1.2-.9.3-.4.5-.7.6-1.1s.2-.9.2-1.4V101h-3.5v-.9h4.5l-.1 1.8zm6.6 4.5h-1V101l-3.9-7.7h1.1l3.3 6.6 3.3-6.6h1.1l-3.9 7.7v5.4z"/><path d="M202 81.7h-1.4l-1-3h-5.4l-1 3h-1.4l4.6-13.1h1.1l4.5 13.1zm-2.8-4.1l-2.3-6.9-2.3 6.9h4.6zm13.7-4.4v4c0 .4-.1 1-.3 1.6s-.4 1.1-.8 1.5c-.8.9-1.9 1.4-3.3 1.4h-4.2V68.6h4.2c1.4 0 2.5.5 3.3 1.4.3.4.6.9.8 1.5.1.7.2 1.2.3 1.7zm-1.4 3.8v-1.8-1.8c0-.4-.1-.9-.2-1.4-.1-.5-.3-.9-.6-1.2-.5-.6-1.4-1-2.4-1h-2.7v10.6h2.7c1.1 0 1.9-.3 2.4-1 .3-.3.4-.7.6-1.2.1-.3.2-.8.2-1.2zm12.2-8.4l-4.1 13.1h-1.1l-4.1-13.1h1.4l3.2 10.6 3.2-10.6h1.5zm10 13.1h-1.4l-1-3h-5.4l-1 3h-1.4l4.6-13.1h1.1l4.5 13.1zm-2.8-4.1l-2.3-6.9-2.3 6.9h4.6zm14.2 4.1h-1.3l-6.6-10.5v10.5H236V68.6h1.3l6.6 10.5V68.6h1.3v13.1h-.1zm12.1-3.7a4.8 4.8 0 0 1-1.5 2.9c-.8.7-1.7 1-2.8 1-1.3 0-2.3-.4-3.1-1.3-.5-.6-.9-1.2-1-1.9-.1-.7-.2-1.8-.2-3.5 0-1.6.1-2.8.2-3.5.1-.7.5-1.3 1-1.9.8-.9 1.8-1.3 3.1-1.3 1.1 0 2.1.3 2.8 1 .8.7 1.2 1.6 1.5 2.9h-1.4c-.2-.8-.5-1.5-1-1.9-.5-.5-1.2-.7-1.9-.7-.8 0-1.6.3-2.1.9-.4.4-.6.9-.7 1.5-.1.6-.2 1.6-.2 3s.1 2.4.2 3c.1.6.3 1.1.7 1.5.6.6 1.3.9 2.1.9s1.4-.2 1.9-.7.9-1.1 1-1.9h1.4zm10.9 3.7h-7.7V68.6h7.7v1.3h-6.4v4.6h5.4v1.3h-5.4v4.7h6.4v1.2zm11.6-8.5v4c0 .4-.1 1-.3 1.6s-.4 1.1-.8 1.5c-.8.9-1.9 1.4-3.3 1.4h-4.2V68.6h4.2c1.4 0 2.5.5 3.3 1.4a5.3 5.3 0 0 1 1.1 3.2zm-1.3 3.8v-1.8-1.8c0-.4-.1-.9-.2-1.4s-.3-.9-.6-1.2c-.5-.6-1.4-1-2.4-1h-2.7v10.6h2.7c1.1 0 1.9-.3 2.4-1 .3-.3.4-.7.6-1.2.1-.3.2-.8.2-1.2z" fill="#a7a9ac"/><path class="st3" d="M110.8 39.4C97.3 53.7 112.2 66.3 95 84.3c-19.6 20.6-29.4 2.4-44.4 18.2-8.4 8.8-8 22.5.8 30.8 8.8 8.1 22.8 7.8 30.9-.9 13.4-13.9-.1-27 16.7-44.6 17.1-17.8 28.8-3.1 43.6-18.7 8.3-8.6 7.9-22.3-.8-30.6s-22.5-7.8-31 .9z"/><circle class="st3" cx="126.3" cy="55.5" r="20.9"/><circle class="st3" cx="67" cy="117.6" r="20.9"/><ellipse transform="rotate(-52.36 67.7 55.55)" class="st0" cx="67.7" cy="55.6" rx="20.9" ry="20.9"/><circle cx="127" cy="117.6" r="21.7" fill="#bcd631"/><path class="st5" d="M77.8 58.5c0 1.4-.3 2.8-.8 4.2-.5 1.2-1.3 2.3-2.3 3.2s-2.1 1.6-3.4 2.1-2.7.7-4.2.7c-1.4 0-2.8-.2-4.1-.7-1.2-.5-2.4-1.2-3.4-2.1s-1.7-2-2.2-3.2c-.6-1.3-.8-2.7-.8-4.2V42.4h5.9v15.9c0 .9.2 1.9.6 2.7.4.7.9 1.2 1.6 1.6a5.42 5.42 0 0 0 5 0c.7-.4 1.2-.9 1.6-1.6.4-.8.6-1.8.6-2.7V42.4h5.9v16.1zM69.9 110v20.7H64V110h-7.4v-5.5h20.7v5.5zM124.7 110v4.7h8.6v5.5h-8.6v4.9h10.5v5.6h-16.4v-26.2h16.4v5.5z"/><g><path class="st5" d="M139.6 69.2h-5.7l-2.3-5.9h-10.5l-2.2 5.9h-5.6L123.5 43h5.6l10.5 26.2zm-9.8-10.3l-3.6-9.7-3.5 9.7h7.1z"/></g></svg>
