<?xml version="1.0" encoding="utf-8"?>
<!-- Generator: Adobe Illustrator 19.2.1, SVG Export Plug-In . SVG Version: 6.00 Build 0)  -->
<svg version="1.1" id="Layer_1" xmlns="http://www.w3.org/2000/svg" xmlns:xlink="http://www.w3.org/1999/xlink" x="0px" y="0px"
	 viewBox="0 0 309.2 139.3" style="enable-background:new 0 0 309.2 139.3;" xml:space="preserve">
<style type="text/css">
	.st0{fill:#A3238E;}
	.st1{fill:#A7A9AC;stroke:#A7A9AC;stroke-width:0.4333;stroke-miterlimit:2.6131;}
	.st2{fill:#A7A9AC;}
	.st3{fill:#2ABEC5;}
	.st4{fill:#BCD631;}
	.st5{fill:#FFFFFF;}
</style>
<g>
	<path class="st0" d="M6.7,24.8c-6.2-3.3-8.3-10.4-5.4-17c0.4-1,0.9-1.8,1.5-2.5c0.6-0.8,1.3-1.5,2-2.1c5.6-4.5,13-4.2,17.8,0.9
		c3.5,3.8,2.7,10.4,6.8,16.9C37,32.9,59,31.6,72.3,34.1c5.1,1,9.5,3.5,12.5,7.3c6.4,8.1,6.2,19.4-0.1,27.1c-5.9,8-16.7,11.2-26.2,7
		c-4.5-2-8-5.5-10.2-10.2C42.5,53,38.1,31.4,24.7,27.1C17.4,24.7,11.2,27.2,6.7,24.8L6.7,24.8z"/>
	<path class="st1" d="M191.6,118h7.9v0.9h-6.9v5.2h5.9v0.9h-5.9v5.3h6.9v0.9h-7.9V118L191.6,118z M203.7,119.7v11.4h-1V118h1
		l7.5,11.3V118h1v13.1h-1L203.7,119.7L203.7,119.7z M219.8,131.1h-1v-12.2h-3.9V118h8.8v0.9h-3.9L219.8,131.1L219.8,131.1z
		 M226.4,118h7.9v0.9h-6.9v5.2h5.9v0.9h-5.9v5.3h6.9v0.9h-7.9V118L226.4,118z M242.1,125h-3.6v6h-1v-13h5c0.5,0,1,0.1,1.5,0.2
		c0.5,0.2,0.9,0.4,1.2,0.7c0.3,0.3,0.6,0.7,0.8,1.1s0.3,0.9,0.3,1.5c0,1-0.3,1.8-0.8,2.4s-1.3,1-2.2,1.1l3.2,6h-1.2L242.1,125
		L242.1,125z M245.3,121.5c0-0.9-0.3-1.6-0.8-2s-1.2-0.6-2.1-0.6h-3.9v5.3h3.9c0.8,0,1.5-0.2,2.1-0.6S245.3,122.4,245.3,121.5
		L245.3,121.5z M258.4,121.8c0,0.6-0.1,1.1-0.3,1.6c-0.2,0.5-0.5,0.9-0.8,1.2s-0.8,0.6-1.2,0.7c-0.5,0.2-1,0.2-1.6,0.2h-3.8v5.5h-1
		v-13h4.8c0.6,0,1.1,0.1,1.6,0.2c0.5,0.2,0.9,0.4,1.2,0.7s0.6,0.7,0.8,1.2C258.3,120.6,258.4,121.2,258.4,121.8L258.4,121.8z
		 M257.5,121.8c0-1-0.3-1.7-0.9-2.2s-1.3-0.7-2.2-0.7h-3.7v5.8h3.7c0.9,0,1.6-0.2,2.2-0.7C257.2,123.5,257.5,122.7,257.5,121.8
		L257.5,121.8z M266,125h-3.6v6h-1v-13h5c0.5,0,1,0.1,1.5,0.2s0.9,0.4,1.2,0.7s0.6,0.7,0.8,1.1c0.2,0.4,0.3,0.9,0.3,1.5
		c0,1-0.3,1.8-0.8,2.4s-1.3,1-2.2,1.1l3.2,6h-1.2L266,125L266,125z M269.2,121.5c0-0.9-0.3-1.6-0.8-2s-1.2-0.6-2.1-0.6h-3.9v5.3h3.9
		c0.8,0,1.5-0.2,2.1-0.6C268.9,123.1,269.2,122.4,269.2,121.5L269.2,121.5z M273.6,118h1v13.1h-1V118L273.6,118z M286.4,127.6
		c0,1.1-0.4,2-1.2,2.6c-0.8,0.6-1.9,1-3.2,1c-1,0-1.8-0.1-2.5-0.4c-0.7-0.3-1.3-0.7-1.9-1.3l0.7-0.7c0.3,0.3,0.6,0.5,0.9,0.7
		s0.6,0.4,0.9,0.5s0.6,0.2,0.9,0.3c0.3,0,0.7,0.1,1.1,0.1c1,0,1.9-0.2,2.5-0.7s0.9-1.1,0.9-2c0-0.8-0.2-1.4-0.7-1.8
		c-0.1-0.1-0.2-0.2-0.3-0.2c-0.1-0.1-0.2-0.1-0.4-0.2c-0.1-0.1-0.3-0.1-0.5-0.1s-0.4-0.1-0.7-0.1l-1.5-0.2c-1-0.1-1.8-0.5-2.3-1
		c-0.7-0.6-1-1.4-1-2.4c0-1.1,0.4-2,1.1-2.6s1.7-1,3-1c0.8,0,1.5,0.1,2.1,0.3c0.6,0.2,1.1,0.6,1.7,1.1l-0.6,0.6
		c-0.2-0.2-0.4-0.3-0.6-0.5c-0.2-0.1-0.4-0.3-0.7-0.4c-0.3-0.1-0.5-0.2-0.8-0.2c-0.3-0.1-0.7-0.1-1-0.1c-1,0-1.7,0.2-2.2,0.7
		s-0.8,1.1-0.8,2c0,0.8,0.2,1.3,0.7,1.7c0.2,0.2,0.5,0.4,0.9,0.5s0.7,0.2,1.1,0.3l1.4,0.2c0.6,0.1,1.1,0.2,1.4,0.3
		c0.3,0.1,0.6,0.3,0.9,0.5c0.4,0.3,0.6,0.7,0.8,1.1S286.4,127,286.4,127.6L286.4,127.6z M289.7,118h7.9v0.9h-6.9v5.2h5.9v0.9h-5.9
		v5.3h6.9v0.9h-7.9V118L289.7,118z M308.5,127.6c0,1.1-0.4,2-1.2,2.6c-0.8,0.6-1.9,1-3.2,1c-1,0-1.8-0.1-2.5-0.4
		c-0.7-0.3-1.3-0.7-1.9-1.3l0.7-0.7c0.3,0.3,0.6,0.5,0.9,0.7s0.6,0.4,0.9,0.5s0.6,0.2,0.9,0.3c0.3,0,0.7,0.1,1.1,0.1
		c1,0,1.9-0.2,2.5-0.7s0.9-1.1,0.9-2c0-0.8-0.2-1.4-0.7-1.8c-0.1-0.1-0.2-0.2-0.3-0.2s-0.2-0.1-0.4-0.2c-0.1-0.1-0.3-0.1-0.5-0.1
		s-0.4-0.1-0.7-0.1l-1.5-0.2c-1-0.1-1.8-0.5-2.3-1c-0.7-0.6-1-1.4-1-2.4c0-1.1,0.4-2,1.1-2.6s1.7-1,3-1c0.8,0,1.5,0.1,2.1,0.3
		c0.6,0.2,1.1,0.6,1.7,1.1l-0.6,0.6c-0.2-0.2-0.4-0.3-0.6-0.5c-0.2-0.1-0.4-0.3-0.7-0.4c-0.3-0.1-0.5-0.2-0.8-0.2
		c-0.3-0.1-0.7-0.1-1-0.1c-1,0-1.7,0.2-2.2,0.7s-0.8,1.1-0.8,2c0,0.8,0.2,1.3,0.7,1.7c0.2,0.2,0.5,0.4,0.9,0.5s0.7,0.2,1.1,0.3
		l1.4,0.2c0.6,0.1,1.1,0.2,1.4,0.3c0.3,0.1,0.6,0.3,0.9,0.5c0.4,0.3,0.6,0.7,0.8,1.1C308.4,126.6,308.5,127,308.5,127.6L308.5,127.6
		z"/>
	<path class="st1" d="M200.7,51.7c0,0.6-0.1,1.2-0.3,1.8c-0.2,0.5-0.5,1-0.9,1.4s-0.9,0.7-1.4,0.9s-1.1,0.3-1.8,0.3
		s-1.3-0.1-1.8-0.3s-1-0.5-1.4-0.9s-0.7-0.8-0.9-1.4c-0.2-0.5-0.3-1.1-0.3-1.8v-8.8h1v8.7c0,0.5,0.1,1,0.2,1.5
		c0.2,0.4,0.4,0.8,0.7,1.1s0.7,0.6,1.1,0.7c0.4,0.2,0.9,0.3,1.4,0.3s1-0.1,1.4-0.3s0.8-0.4,1.1-0.7s0.5-0.7,0.7-1.1s0.2-0.9,0.2-1.5
		v-8.7h1V51.7L200.7,51.7z M205.7,44.6V56h-1V42.9h1l7.5,11.3V42.9h1V56h-1L205.7,44.6L205.7,44.6z M218.4,42.9h1V56h-1V42.9
		L218.4,42.9z M232,49.4c0,0.7,0,1.4,0,1.9s-0.1,1-0.1,1.4c-0.1,0.4-0.2,0.8-0.4,1.1s-0.4,0.6-0.7,0.9c-0.4,0.4-0.9,0.8-1.5,1
		s-1.2,0.3-1.8,0.3s-1.2-0.1-1.8-0.3s-1.1-0.6-1.5-1c-0.3-0.3-0.5-0.6-0.7-0.9c-0.2-0.3-0.3-0.7-0.4-1.1s-0.1-0.9-0.1-1.4
		s0-1.2,0-1.9s0-1.4,0-1.9s0.1-1,0.1-1.4s0.2-0.8,0.4-1.1s0.4-0.6,0.7-0.9c0.4-0.4,0.9-0.8,1.5-1s1.2-0.3,1.8-0.3s1.2,0.1,1.8,0.3
		s1.1,0.6,1.5,1c0.3,0.3,0.5,0.6,0.7,0.9s0.3,0.7,0.4,1.1c0.1,0.4,0.1,0.9,0.1,1.4C232,48.1,232,48.7,232,49.4L232,49.4z M231,49.4
		c0-0.7,0-1.3,0-1.8s-0.1-0.9-0.1-1.3c-0.1-0.4-0.2-0.7-0.3-0.9c-0.1-0.3-0.3-0.5-0.6-0.7c-0.3-0.3-0.7-0.6-1.1-0.8
		c-0.4-0.2-0.9-0.3-1.3-0.3c-0.5,0-0.9,0.1-1.3,0.3c-0.4,0.2-0.8,0.4-1.1,0.8c-0.2,0.2-0.4,0.5-0.6,0.7c-0.1,0.3-0.2,0.6-0.3,0.9
		c-0.1,0.4-0.1,0.8-0.1,1.3s0,1.1,0,1.8s0,1.3,0,1.8s0.1,0.9,0.1,1.3s0.2,0.7,0.3,0.9s0.3,0.5,0.6,0.7c0.3,0.3,0.7,0.6,1.1,0.8
		c0.4,0.2,0.9,0.3,1.3,0.3c0.5,0,0.9-0.1,1.3-0.3s0.8-0.4,1.1-0.8c0.2-0.2,0.4-0.5,0.6-0.7s0.2-0.6,0.3-0.9c0.1-0.4,0.1-0.8,0.1-1.3
		S231,50.1,231,49.4L231,49.4z M236.7,44.6V56h-1V42.9h1l7.5,11.3V42.9h1V56h-1L236.7,44.6L236.7,44.6z M262.5,49.4
		c0,0.7,0,1.4,0,1.9s-0.1,1-0.1,1.4s-0.2,0.8-0.4,1.1c-0.2,0.3-0.4,0.6-0.7,0.9c-0.4,0.4-0.9,0.8-1.5,1S258.6,56,258,56
		s-1.2-0.1-1.8-0.3c-0.6-0.2-1.1-0.6-1.5-1c-0.3-0.3-0.5-0.6-0.7-0.9c-0.2-0.3-0.3-0.7-0.4-1.1c-0.1-0.4-0.1-0.9-0.1-1.4
		s0-1.2,0-1.9s0-1.4,0-1.9s0.1-1,0.1-1.4c0.1-0.4,0.2-0.8,0.4-1.1s0.4-0.6,0.7-0.9c0.4-0.4,0.9-0.8,1.5-1s1.2-0.3,1.8-0.3
		s1.2,0.1,1.8,0.3c0.6,0.2,1.1,0.6,1.5,1c0.3,0.3,0.5,0.6,0.7,0.9c0.2,0.3,0.3,0.7,0.4,1.1s0.1,0.9,0.1,1.4
		C262.5,48.1,262.5,48.7,262.5,49.4L262.5,49.4z M261.5,49.4c0-0.7,0-1.3,0-1.8s-0.1-0.9-0.1-1.3c-0.1-0.4-0.2-0.7-0.3-0.9
		c-0.1-0.3-0.3-0.5-0.6-0.7c-0.3-0.3-0.7-0.6-1.1-0.8s-0.9-0.3-1.3-0.3s-0.9,0.1-1.3,0.3s-0.8,0.4-1.1,0.8c-0.2,0.2-0.4,0.5-0.6,0.7
		c-0.1,0.3-0.2,0.6-0.3,0.9c-0.1,0.4-0.1,0.8-0.1,1.3s0,1.1,0,1.8s0,1.3,0,1.8s0.1,0.9,0.1,1.3s0.2,0.7,0.3,0.9
		c0.1,0.3,0.3,0.5,0.6,0.7c0.3,0.3,0.7,0.6,1.1,0.8s0.9,0.3,1.3,0.3s0.9-0.1,1.3-0.3s0.8-0.4,1.1-0.8c0.2-0.2,0.4-0.5,0.6-0.7
		s0.2-0.6,0.3-0.9c0.1-0.4,0.1-0.8,0.1-1.3S261.5,50.1,261.5,49.4L261.5,49.4z M267.1,49.2h5.9V50h-5.9v6h-1V42.9h7.9v0.9h-6.9V49.2
		L267.1,49.2z"/>
	<path class="st1" d="M196.4,106.4h-1V94.3h-3.9v-0.9h8.8v0.9h-3.9L196.4,106.4L196.4,106.4z M203,93.4h7.9v0.9H204v5.2h5.9v0.9H204
		v5.3h6.9v0.9H203V93.4L203,93.4z M222.5,102.7c-0.1,0.6-0.3,1.1-0.6,1.6s-0.6,0.9-1,1.2c-0.4,0.3-0.8,0.6-1.3,0.8
		c-0.5,0.2-1,0.3-1.6,0.3s-1.2-0.1-1.8-0.3s-1.1-0.6-1.5-1c-0.3-0.3-0.5-0.6-0.7-0.9s-0.3-0.7-0.4-1.1c-0.1-0.4-0.1-0.9-0.1-1.4
		s0-1.2,0-1.9s0-1.4,0-1.9s0.1-1,0.1-1.4s0.2-0.8,0.4-1.1c0.2-0.3,0.4-0.6,0.7-0.9c0.4-0.4,0.9-0.8,1.5-1s1.2-0.3,1.8-0.3
		c1.2,0,2.2,0.3,2.9,1c0.8,0.7,1.3,1.6,1.5,2.8h-1c-0.2-0.9-0.6-1.6-1.2-2.2c-0.6-0.5-1.4-0.8-2.2-0.8c-0.5,0-0.9,0.1-1.3,0.3
		c-0.4,0.2-0.8,0.4-1.1,0.8c-0.2,0.2-0.4,0.5-0.6,0.7c-0.1,0.3-0.2,0.6-0.3,0.9s-0.1,0.8-0.1,1.3s0,1.1,0,1.8s0,1.3,0,1.8
		s0.1,0.9,0.1,1.3c0.1,0.4,0.2,0.7,0.3,0.9c0.1,0.3,0.3,0.5,0.6,0.7c0.3,0.3,0.7,0.6,1.1,0.8c0.4,0.2,0.9,0.3,1.3,0.3
		c0.9,0,1.6-0.3,2.2-0.8c0.6-0.5,1-1.2,1.2-2.2L222.5,102.7L222.5,102.7z M233.8,100.3H227v6.2h-1V93.4h1v6h6.8v-6h1v13.1h-1V100.3
		L233.8,100.3z M240,95.1v11.4h-1V93.4h1l7.5,11.3V93.4h1v13.1h-1L240,95.1L240,95.1z M261.1,99.9c0,0.7,0,1.4,0,1.9s-0.1,1-0.1,1.4
		c-0.1,0.4-0.2,0.8-0.4,1.1s-0.4,0.6-0.7,0.9c-0.4,0.4-0.9,0.8-1.5,1s-1.2,0.3-1.8,0.3c-0.6,0-1.2-0.1-1.8-0.3
		c-0.6-0.2-1.1-0.6-1.5-1c-0.3-0.3-0.5-0.6-0.7-0.9s-0.3-0.7-0.4-1.1c-0.1-0.4-0.1-0.9-0.1-1.4s0-1.2,0-1.9s0-1.4,0-1.9
		s0.1-1,0.1-1.4c0.1-0.4,0.2-0.8,0.4-1.1c0.2-0.3,0.4-0.6,0.7-0.9c0.4-0.4,0.9-0.8,1.5-1s1.2-0.3,1.8-0.3s1.2,0.1,1.8,0.3
		c0.6,0.2,1.1,0.6,1.5,1c0.3,0.3,0.5,0.6,0.7,0.9s0.3,0.7,0.4,1.1s0.1,0.9,0.1,1.4S261.1,99.2,261.1,99.9L261.1,99.9z M260.1,99.9
		c0-0.7,0-1.3,0-1.8s-0.1-0.9-0.1-1.3c-0.1-0.4-0.2-0.7-0.3-0.9c-0.1-0.3-0.3-0.5-0.6-0.7c-0.3-0.3-0.7-0.6-1.1-0.8
		c-0.4-0.2-0.9-0.3-1.3-0.3s-0.9,0.1-1.3,0.3c-0.4,0.2-0.8,0.4-1.1,0.8c-0.2,0.2-0.4,0.5-0.6,0.7c-0.1,0.3-0.2,0.6-0.3,0.9
		s-0.1,0.8-0.1,1.3s0,1.1,0,1.8s0,1.3,0,1.8s0.1,0.9,0.1,1.3c0.1,0.4,0.2,0.7,0.3,0.9c0.1,0.3,0.3,0.5,0.6,0.7
		c0.3,0.3,0.7,0.6,1.1,0.8s0.9,0.3,1.3,0.3s0.9-0.1,1.3-0.3s0.8-0.4,1.1-0.8c0.2-0.2,0.4-0.5,0.6-0.7c0.1-0.3,0.2-0.6,0.3-0.9
		c0.1-0.4,0.1-0.8,0.1-1.3C260.1,101.2,260.1,100.6,260.1,99.9L260.1,99.9z M264.8,93.4h1v12.2h6.9v0.9h-7.9V93.4L264.8,93.4z
		 M283.9,99.9c0,0.7,0,1.4,0,1.9s-0.1,1-0.1,1.4c-0.1,0.4-0.2,0.8-0.4,1.1s-0.4,0.6-0.7,0.9c-0.4,0.4-0.9,0.8-1.5,1
		s-1.2,0.3-1.8,0.3s-1.2-0.1-1.8-0.3c-0.6-0.2-1.1-0.6-1.5-1c-0.3-0.3-0.5-0.6-0.7-0.9s-0.3-0.7-0.4-1.1s-0.1-0.9-0.1-1.4
		s0-1.2,0-1.9s0-1.4,0-1.9s0.1-1,0.1-1.4c0.1-0.4,0.2-0.8,0.4-1.1c0.2-0.3,0.4-0.6,0.7-0.9c0.4-0.4,0.9-0.8,1.5-1s1.2-0.3,1.8-0.3
		s1.2,0.1,1.8,0.3c0.6,0.2,1.1,0.6,1.5,1c0.3,0.3,0.5,0.6,0.7,0.9s0.3,0.7,0.4,1.1s0.1,0.9,0.1,1.4S283.9,99.2,283.9,99.9
		L283.9,99.9z M282.9,99.9c0-0.7,0-1.3,0-1.8s-0.1-0.9-0.1-1.3s-0.2-0.7-0.3-0.9c-0.1-0.3-0.3-0.5-0.6-0.7c-0.3-0.3-0.7-0.6-1.1-0.8
		c-0.4-0.2-0.9-0.3-1.3-0.3c-0.5,0-0.9,0.1-1.3,0.3c-0.4,0.2-0.8,0.4-1.1,0.8c-0.2,0.2-0.4,0.5-0.6,0.7c-0.1,0.3-0.2,0.6-0.3,0.9
		c-0.1,0.4-0.1,0.8-0.1,1.3s0,1.1,0,1.8s0,1.3,0,1.8s0.1,0.9,0.1,1.3c0.1,0.4,0.2,0.7,0.3,0.9c0.1,0.3,0.3,0.5,0.6,0.7
		c0.3,0.3,0.7,0.6,1.1,0.8c0.4,0.2,0.9,0.3,1.3,0.3c0.5,0,0.9-0.1,1.3-0.3s0.8-0.4,1.1-0.8c0.2-0.2,0.4-0.5,0.6-0.7
		c0.1-0.3,0.2-0.6,0.3-0.9c0.1-0.4,0.1-0.8,0.1-1.3C282.9,101.2,282.9,100.6,282.9,99.9L282.9,99.9z M296,101.9
		c0,0.7-0.1,1.3-0.2,1.8s-0.4,1-0.8,1.4c-0.4,0.5-0.9,0.8-1.5,1.1c-0.6,0.3-1.2,0.4-1.9,0.4c-0.6,0-1.2-0.1-1.8-0.3
		c-0.6-0.2-1.1-0.6-1.5-1c-0.3-0.3-0.5-0.6-0.7-0.9s-0.3-0.7-0.4-1.1s-0.1-0.9-0.1-1.4s0-1.2,0-1.9s0-1.4,0-1.9s0.1-1,0.1-1.4
		s0.2-0.8,0.4-1.1c0.2-0.3,0.4-0.6,0.7-0.9c0.4-0.4,0.9-0.8,1.5-1s1.2-0.3,1.8-0.3c0.6,0,1.1,0.1,1.6,0.3c0.5,0.2,0.9,0.4,1.3,0.8
		c0.4,0.3,0.7,0.7,1,1.2s0.4,1,0.5,1.6h-1c-0.2-0.9-0.6-1.6-1.2-2.2c-0.6-0.5-1.4-0.8-2.2-0.8c-0.5,0-0.9,0.1-1.3,0.3
		c-0.4,0.2-0.8,0.4-1.1,0.8c-0.2,0.2-0.4,0.5-0.5,0.7c-0.1,0.3-0.2,0.6-0.3,0.9s-0.1,0.8-0.1,1.3s0,1.1,0,1.8s0,1.3,0,1.8
		s0.1,0.9,0.1,1.3c0.1,0.4,0.2,0.7,0.3,0.9c0.1,0.3,0.3,0.5,0.5,0.7c0.3,0.3,0.7,0.6,1.1,0.8c0.4,0.2,0.9,0.3,1.3,0.3
		c0.5,0,1-0.1,1.5-0.3c0.5-0.2,0.9-0.5,1.2-0.9c0.3-0.4,0.5-0.7,0.6-1.1s0.2-0.9,0.2-1.4V101h-3.5v-0.9h4.5L296,101.9L296,101.9z
		 M302.6,106.4h-1V101l-3.9-7.7h1.1l3.3,6.6l3.3-6.6h1.1l-3.9,7.7V106.4L302.6,106.4z"/>
</g>
<g>
	<g>
		<path class="st2" d="M202,81.7h-1.4l-1-3h-5.4l-1,3h-1.4l4.6-13.1h1.1L202,81.7z M199.2,77.6l-2.3-6.9l-2.3,6.9H199.2z
			 M212.9,73.2c0,0.5,0,1.1,0,2s0,1.6,0,2s-0.1,1-0.3,1.6s-0.4,1.1-0.8,1.5c-0.8,0.9-1.9,1.4-3.3,1.4h-4.2V68.6h4.2
			c1.4,0,2.5,0.5,3.3,1.4c0.3,0.4,0.6,0.9,0.8,1.5C212.7,72.2,212.8,72.7,212.9,73.2z M211.5,77c0-0.4,0-1,0-1.8s0-1.4,0-1.8
			s-0.1-0.9-0.2-1.4c-0.1-0.5-0.3-0.9-0.6-1.2c-0.5-0.6-1.4-1-2.4-1h-2.7v10.6h2.7c1.1,0,1.9-0.3,2.4-1c0.3-0.3,0.4-0.7,0.6-1.2
			C211.4,77.9,211.5,77.4,211.5,77z M223.7,68.6l-4.1,13.1h-1.1l-4.1-13.1h1.4l3.2,10.6l3.2-10.6H223.7z M233.7,81.7h-1.4l-1-3h-5.4
			l-1,3h-1.4l4.6-13.1h1.1L233.7,81.7z M230.9,77.6l-2.3-6.9l-2.3,6.9H230.9z M245.1,81.7h-1.3l-6.6-10.5v10.5H236V68.6h1.3
			l6.6,10.5V68.6h1.3v13.1H245.1z M257.2,78c-0.2,1.2-0.7,2.2-1.5,2.9c-0.8,0.7-1.7,1-2.8,1c-1.3,0-2.3-0.4-3.1-1.3
			c-0.5-0.6-0.9-1.2-1-1.9c-0.1-0.7-0.2-1.8-0.2-3.5c0-1.6,0.1-2.8,0.2-3.5c0.1-0.7,0.5-1.3,1-1.9c0.8-0.9,1.8-1.3,3.1-1.3
			c1.1,0,2.1,0.3,2.8,1c0.8,0.7,1.2,1.6,1.5,2.9h-1.4c-0.2-0.8-0.5-1.5-1-1.9c-0.5-0.5-1.2-0.7-1.9-0.7c-0.8,0-1.6,0.3-2.1,0.9
			c-0.4,0.4-0.6,0.9-0.7,1.5c-0.1,0.6-0.2,1.6-0.2,3s0.1,2.4,0.2,3c0.1,0.6,0.3,1.1,0.7,1.5c0.6,0.6,1.3,0.9,2.1,0.9
			s1.4-0.2,1.9-0.7s0.9-1.1,1-1.9H257.2z M268.1,81.7h-7.7V68.6h7.7v1.3h-6.4v4.6h5.4v1.3h-5.4v4.7h6.4V81.7z M279.7,73.2
			c0,0.5,0,1.1,0,2s0,1.6,0,2s-0.1,1-0.3,1.6s-0.4,1.1-0.8,1.5c-0.8,0.9-1.9,1.4-3.3,1.4h-4.2V68.6h4.2c1.4,0,2.5,0.5,3.3,1.4
			c0.3,0.4,0.6,0.9,0.8,1.5C279.6,72.2,279.7,72.7,279.7,73.2z M278.4,77c0-0.4,0-1,0-1.8s0-1.4,0-1.8s-0.1-0.9-0.2-1.4
			s-0.3-0.9-0.6-1.2c-0.5-0.6-1.4-1-2.4-1h-2.7v10.6h2.7c1.1,0,1.9-0.3,2.4-1c0.3-0.3,0.4-0.7,0.6-1.2
			C278.3,77.9,278.4,77.4,278.4,77z"/>
	</g>
</g>
<path class="st3" d="M110.8,39.4C97.3,53.7,112.2,66.3,95,84.3c-19.6,20.6-29.4,2.4-44.4,18.2c-8.4,8.8-8,22.5,0.8,30.8
	c8.8,8.1,22.8,7.8,30.9-0.9c13.4-13.9-0.1-27,16.7-44.6c17.1-17.8,28.8-3.1,43.6-18.7c8.3-8.6,7.9-22.3-0.8-30.6
	S119.3,30.7,110.8,39.4z"/>
<circle class="st3" cx="126.3" cy="55.5" r="20.9"/>
<circle class="st3" cx="67" cy="117.6" r="20.9"/>
<ellipse transform="matrix(0.6107 -0.7918 0.7918 0.6107 -17.6375 75.2232)" class="st0" cx="67.7" cy="55.6" rx="20.9" ry="20.9"/>
<circle class="st4" cx="127" cy="117.6" r="21.7"/>
<path class="st5" d="M77.8,58.5c0,1.4-0.3,2.8-0.8,4.2c-0.5,1.2-1.3,2.3-2.3,3.2s-2.1,1.6-3.4,2.1s-2.7,0.7-4.2,0.7
	c-1.4,0-2.8-0.2-4.1-0.7c-1.2-0.5-2.4-1.2-3.4-2.1s-1.7-2-2.2-3.2c-0.6-1.3-0.8-2.7-0.8-4.2V42.4h5.9v15.9c0,0.9,0.2,1.9,0.6,2.7
	c0.4,0.7,0.9,1.2,1.6,1.6c0.8,0.4,1.6,0.6,2.5,0.6s1.7-0.2,2.5-0.6c0.7-0.4,1.2-0.9,1.6-1.6c0.4-0.8,0.6-1.8,0.6-2.7V42.4h5.9
	C77.8,42.4,77.8,58.5,77.8,58.5z"/>
<polygon class="st5" points="69.9,110 69.9,130.7 64,130.7 64,110 56.6,110 56.6,104.5 77.3,104.5 77.3,110 "/>
<polygon class="st5" points="124.7,110 124.7,114.7 133.3,114.7 133.3,120.2 124.7,120.2 124.7,125.1 135.2,125.1 135.2,130.7 
	118.8,130.7 118.8,104.5 135.2,104.5 135.2,110 "/>
<g>
	<path class="st5" d="M139.6,69.2h-5.7l-2.3-5.9h-10.5l-2.2,5.9h-5.6L123.5,43h5.6L139.6,69.2z M129.8,58.9l-3.6-9.7l-3.5,9.7H129.8
		z"/>
</g>
</svg>
