<svg width="115" height="132" xmlns="http://www.w3.org/2000/svg"><g transform="translate(3 1)" fill="none" fill-rule="evenodd"><circle stroke="#034A0E" stroke-width="6" fill-opacity=".2" fill="#2DC7A8" cx="54.026" cy="73.974" r="54.026"/><g fill="#034A0E" stroke="#034A0E" stroke-linecap="round" stroke-width="4"><path d="M21.74 41.852l-5.782-5.787M92 112.168l-5.782-5.787M53.956 28.64v-7.86M53.956 128v-7.861M86.272 41.961l6.055-5.677M15.794 112.277l6.055-5.677M99.364 74.28h7.305M1.846 73.966h6.256"/></g><path d="M46.808 18.286V11.49c-5.162.342-7.743-1.583-7.743-5.775S41.646-.363 46.808.057H61.27c5.145-.34 7.717 1.545 7.717 5.659s-2.572 6.039-7.717 5.775v6.795H46.808zM91.429 31.563l4.015-4.191c-2.615-2.444-3.014-4.568-1.195-6.373 1.818-1.805 3.821-1.285 6.009 1.562l6.05 6.319c2.051 2 2.293 3.848.725 5.543-1.568 1.696-3.325 1.507-5.272-.567l-4.223 4.378-6.11-6.671z" stroke="#034A0E" fill="#034A0E"/><text font-family="Dosis-ExtraBold, Dosis" font-size="20" font-weight="600" fill="#6FC960"><tspan x="19.166" y="69.84">COMING</tspan> <tspan x="29.116" y="93.84">SOON</tspan></text></g></svg>
