<?xml version="1.0" encoding="UTF-8"?>
<svg width="150px" height="150px" viewBox="0 0 150 150" version="1.1" xmlns="http://www.w3.org/2000/svg" xmlns:xlink="http://www.w3.org/1999/xlink">
    <!-- Generator: Sketch 51.3 (57544) - http://www.bohemiancoding.com/sketch -->
    <title>Coming Soon@1x</title>
    <desc>Created with Sketch.</desc>
    <defs></defs>
    <g id="Coming-Soon" stroke="none" stroke-width="1" fill="none" fill-rule="evenodd">
        <g id="Stopwatch" transform="translate(21.000000, 11.000000)">
            <circle id="Oval" stroke="#034A0E" stroke-width="6" fill-opacity="0.2" fill="#2DC7A8" cx="54.025974" cy="73.974026" r="54.025974"></circle>
            <g id="Ticks" transform="translate(1.662338, 20.779221)" fill="#034A0E" stroke="#034A0E" stroke-linecap="round" stroke-width="4">
                <path d="M20.0775443,21.072923 L14.2952845,15.2860581" id="Line"></path>
                <path d="M90.3374555,91.3887904 L84.5551957,85.6019256" id="Line"></path>
                <path d="M52.2936219,7.86140133 L52.2936219,0" id="Line"></path>
                <path d="M52.2936219,107.220779 L52.2936219,99.3593779" id="Line"></path>
                <path d="M84.6097453,21.1821091 L90.6647532,15.5044304" id="Line"></path>
                <path d="M14.1316356,91.4979766 L20.1866435,85.8202978" id="Line"></path>
                <path d="M97.7016542,53.5012035 L105.006742,53.5012035" id="Line"></path>
                <path d="M0.183899724,53.1872777 L6.44013914,53.1872777" id="Line"></path>
            </g>
            <path d="M46.8083839,18.2857143 L46.8083839,11.49139 C41.6460847,11.8334547 39.0649351,9.90833285 39.0649351,5.71602445 C39.0649351,1.52371605 41.6460847,-0.362516265 46.8083839,0.0573275081 L61.2703962,0.0573275081 C66.4148074,-0.283821813 68.987013,1.6024105 68.987013,5.71602445 C68.987013,9.8296384 66.4148074,11.7547603 61.2703962,11.49139 L61.2703962,18.2857143 L46.8083839,18.2857143 Z" id="Path-2" stroke="#034A0E" fill="#034A0E"></path>
            <path d="M91.4285714,31.5628442 L95.4435134,27.3717553 C92.8286062,24.9284433 92.4303029,22.8041625 94.2486037,20.998913 C96.0669044,19.1936634 98.0700347,19.7143109 100.257995,22.5608554 L106.308539,28.8800406 C108.359362,30.8799406 108.600853,32.7276906 107.033012,34.4232907 C105.465172,36.1188908 103.707722,35.92996 101.760665,33.8564984 L97.5382043,38.2337662 L91.4285714,31.5628442 Z" id="Path-3" stroke="#034A0E" fill="#034A0E"></path>
            <path d="M28.7,59.52 C28.68,59 28.62,57.72 26.92,57.72 C25.78,57.72 25.12,58.36 25.12,59.72 L25.12,65.02 C25.12,66.38 25.78,67.02 26.94,67.02 C28.54,67.02 28.64,65.8 28.7,65.02 C28.76,64.28 29.44,64.08 30.24,64.08 C31.32,64.08 31.82,64.36 31.82,65.56 C31.82,68.22 29.66,69.74 26.8,69.74 C24.18,69.74 22,68.46 22,65.02 L22,59.72 C22,56.28 24.18,55 26.8,55 C29.66,55 31.82,56.44 31.82,58.98 C31.82,60.18 31.32,60.46 30.26,60.46 C29.42,60.46 28.74,60.24 28.7,59.52 Z M38.14,69.74 C35.38,69.74 33.24,68.46 33.24,65.02 L33.24,59.72 C33.24,56.28 35.38,55 38.14,55 C40.9,55 43.06,56.28 43.06,59.72 L43.06,65.02 C43.06,68.46 40.9,69.74 38.14,69.74 Z M39.94,65.02 L39.94,59.72 C39.94,58.34 39.26,57.72 38.14,57.72 C37.02,57.72 36.36,58.34 36.36,59.72 L36.36,65.02 C36.36,66.4 37.02,67.02 38.14,67.02 C39.26,67.02 39.94,66.4 39.94,65.02 Z M54.02,61.16 L52.1,64.44 C51.84,64.88 51.44,65.02 51.06,65.02 C50.7,65.02 50.32,64.9 50.08,64.44 L48.18,60.96 L48.18,68.66 C48.18,69.3 47.4,69.62 46.62,69.62 C45.84,69.62 45.06,69.3 45.06,68.66 L45.06,56.56 C45.06,55.42 45.84,55 46.62,55 C47.74,55 48.22,55.12 49.04,56.56 L51.1,60.16 L53.16,56.56 C53.98,55.12 54.46,55 55.58,55 C56.38,55 57.14,55.42 57.14,56.56 L57.14,68.66 C57.14,69.3 56.36,69.62 55.58,69.62 C54.8,69.62 54.02,69.3 54.02,68.66 L54.02,61.16 Z M59.3,68.66 L59.3,55.94 C59.3,55.28 60.08,55 60.86,55 C61.64,55 62.42,55.28 62.42,55.94 L62.42,68.66 C62.42,69.3 61.64,69.62 60.86,69.62 C60.08,69.62 59.3,69.3 59.3,68.66 Z M73.24,69.62 C72.52,69.62 71.88,69.48 71.5,68.78 L67.7,61.86 L67.7,68.66 C67.7,69.3 66.92,69.62 66.14,69.62 C65.36,69.62 64.58,69.3 64.58,68.66 L64.58,55.96 C64.58,55.3 65.36,55 66.14,55 C67.26,55 67.68,55.1 68.44,56.56 L71.68,62.74 L71.68,55.94 C71.68,55.28 72.46,55 73.24,55 C74.02,55 74.8,55.28 74.8,55.94 L74.8,68.66 C74.8,69.3 74.02,69.62 73.24,69.62 Z M83.5,59.52 C83.48,58.8 83.42,57.72 81.72,57.72 C80.58,57.72 79.92,58.36 79.92,59.72 L79.92,65.02 C79.92,66.38 80.58,67.02 81.7,67.02 C82.82,67.02 83.5,66.38 83.5,65.02 L83.5,64.34 L82.32,64.34 C81.72,64.34 81.38,63.76 81.38,63.14 C81.38,62.56 81.72,61.94 82.32,61.94 L85.68,61.94 C86.28,61.94 86.62,62.4 86.62,62.92 L86.62,65.02 C86.62,68.46 84.46,69.74 81.7,69.74 C78.94,69.74 76.8,68.46 76.8,65.02 L76.8,59.72 C76.8,56.28 78.98,55 81.6,55 C84.46,55 86.62,56.44 86.62,58.98 C86.62,60.18 86.12,60.46 85.06,60.46 C84.22,60.46 83.52,60.24 83.5,59.52 Z M36.17,91.02 C37.09,91.02 38.11,90.66 38.11,89.7 C38.11,87.28 31.77,87.7 31.77,83.02 C31.77,80.02 34.39,78.88 36.89,78.88 C37.95,78.88 40.87,79.08 40.87,80.64 C40.87,81.18 40.51,82.28 39.63,82.28 C38.91,82.28 38.53,81.52 36.89,81.52 C35.47,81.52 34.89,82.1 34.89,82.72 C34.89,84.72 41.23,84.34 41.23,89.38 C41.23,92.26 39.13,93.82 36.23,93.82 C33.61,93.82 31.41,92.54 31.41,91.22 C31.41,90.54 32.01,89.54 32.77,89.54 C33.71,89.54 34.31,91.02 36.17,91.02 Z M47.51,93.74 C44.75,93.74 42.61,92.46 42.61,89.02 L42.61,83.72 C42.61,80.28 44.75,79 47.51,79 C50.27,79 52.43,80.28 52.43,83.72 L52.43,89.02 C52.43,92.46 50.27,93.74 47.51,93.74 Z M49.31,89.02 L49.31,83.72 C49.31,82.34 48.63,81.72 47.51,81.72 C46.39,81.72 45.73,82.34 45.73,83.72 L45.73,89.02 C45.73,90.4 46.39,91.02 47.51,91.02 C48.63,91.02 49.31,90.4 49.31,89.02 Z M59.17,93.74 C56.41,93.74 54.27,92.46 54.27,89.02 L54.27,83.72 C54.27,80.28 56.41,79 59.17,79 C61.93,79 64.09,80.28 64.09,83.72 L64.09,89.02 C64.09,92.46 61.93,93.74 59.17,93.74 Z M60.97,89.02 L60.97,83.72 C60.97,82.34 60.29,81.72 59.17,81.72 C58.05,81.72 57.39,82.34 57.39,83.72 L57.39,89.02 C57.39,90.4 58.05,91.02 59.17,91.02 C60.29,91.02 60.97,90.4 60.97,89.02 Z M74.75,93.62 C74.03,93.62 73.39,93.48 73.01,92.78 L69.21,85.86 L69.21,92.66 C69.21,93.3 68.43,93.62 67.65,93.62 C66.87,93.62 66.09,93.3 66.09,92.66 L66.09,79.96 C66.09,79.3 66.87,79 67.65,79 C68.77,79 69.19,79.1 69.95,80.56 L73.19,86.74 L73.19,79.94 C73.19,79.28 73.97,79 74.75,79 C75.53,79 76.31,79.28 76.31,79.94 L76.31,92.66 C76.31,93.3 75.53,93.62 74.75,93.62 Z" id="COMING-SOON" fill="#6FC960"></path>
        </g>
    </g>
</svg>